<?xml version="1.0" encoding="utf-8"?>
<!-- Generator: Adobe Illustrator 24.2.3, SVG Export Plug-In . SVG Version: 6.00 Build 0)  -->
<svg version="1.1" id="Layer_1" xmlns="http://www.w3.org/2000/svg" xmlns:xlink="http://www.w3.org/1999/xlink" x="0px" y="0px"
	 viewBox="0 0 1318 800" style="enable-background:new 0 0 1318 800;" xml:space="preserve">
<style type="text/css">
	.st0{fill-rule:evenodd;clip-rule:evenodd;fill:url(#SVGID_1_);}
	.st1{fill-rule:evenodd;clip-rule:evenodd;fill:url(#SVGID_2_);}
	.st2{fill:none;stroke:url(#SVGID_3_);stroke-width:17;}
	.st3{opacity:0.558;fill-rule:evenodd;clip-rule:evenodd;fill:url(#SVGID_4_);enable-background:new    ;}
	.st4{opacity:0.503;fill-rule:evenodd;clip-rule:evenodd;fill:url(#SVGID_5_);enable-background:new    ;}
	.st5{opacity:0.558;fill-rule:evenodd;clip-rule:evenodd;fill:url(#SVGID_6_);enable-background:new    ;}
	.st6{opacity:0.558;fill-rule:evenodd;clip-rule:evenodd;fill:url(#SVGID_7_);enable-background:new    ;}
	.st7{opacity:0.387;fill-rule:evenodd;clip-rule:evenodd;fill:url(#SVGID_8_);enable-background:new    ;}
	.st8{opacity:0.211;fill-rule:evenodd;clip-rule:evenodd;fill:url(#SVGID_9_);enable-background:new    ;}
</style>
<g>
	
		<linearGradient id="SVGID_1_" gradientUnits="userSpaceOnUse" x1="352.9879" y1="796.9017" x2="354.4183" y2="795.0209" gradientTransform="matrix(-834.817 0 0 -532.83 295878.2188 424136.6875)">
		<stop  offset="0" style="stop-color:#FF52C1"/>
		<stop  offset="4.090000e-02" style="stop-color:#F952C5"/>
		<stop  offset="1" style="stop-color:#9952FF;stop-opacity:0"/>
	</linearGradient>
	<path class="st0" d="M834.8,0H425.6L0,376v156.8L834.8,0z"/>
	
		<linearGradient id="SVGID_2_" gradientUnits="userSpaceOnUse" x1="352.7289" y1="797.2358" x2="354.3474" y2="795.0168" gradientTransform="matrix(-1057.3 0 0 434 374637.2188 -344659)">
		<stop  offset="0" style="stop-color:#FF52C1"/>
		<stop  offset="4.090000e-02" style="stop-color:#F952C5"/>
		<stop  offset="1" style="stop-color:#9952FF;stop-opacity:0"/>
	</linearGradient>
	<path class="st1" d="M1057.3,801l-641.2-0.1L0,494.7V367L1057.3,801z"/>
	
		<linearGradient id="SVGID_3_" gradientUnits="userSpaceOnUse" x1="350.3725" y1="794.908" x2="349.1236" y2="796.5734" gradientTransform="matrix(98 0 0 -98 -33586 78526)">
		<stop  offset="0" style="stop-color:#FF52C1"/>
		<stop  offset="1" style="stop-color:#9952FF"/>
	</linearGradient>
	<circle class="st2" cx="704" cy="563" r="49"/>
	
		<linearGradient id="SVGID_4_" gradientUnits="userSpaceOnUse" x1="346.5096" y1="789.399" x2="347.7513" y2="787.9932" gradientTransform="matrix(26.8701 26.8701 26.8701 -26.8701 -29412.8262 12589.4355)">
		<stop  offset="0" style="stop-color:#FF52C1"/>
		<stop  offset="1" style="stop-color:#9952FF"/>
	</linearGradient>
	<path class="st3" d="M1110,684.1l22.6,22.6c1.2,1.2,1.2,3.1,0,4.2l-22.6,22.6c-1.2,1.2-3.1,1.2-4.2,0l-22.6-22.6
		c-1.2-1.2-1.2-3.1,0-4.2l22.6-22.6C1106.9,682.9,1108.8,682.9,1110,684.1z"/>
	
		<linearGradient id="SVGID_5_" gradientUnits="userSpaceOnUse" x1="348.6448" y1="791.4865" x2="349.8866" y2="790.0806" gradientTransform="matrix(39.598 39.598 39.598 -39.598 -43865.4805 17609.9043)">
		<stop  offset="0" style="stop-color:#FF52C1"/>
		<stop  offset="1" style="stop-color:#9952FF"/>
	</linearGradient>
	<path class="st4" d="M1281.7,66.1l35.4,35.4c1.2,1.2,1.2,3.1,0,4.2l-35.4,35.4c-1.2,1.2-3.1,1.2-4.2,0l-35.4-35.4
		c-1.2-1.2-1.2-3.1,0-4.2l35.4-35.4C1278.6,64.9,1280.5,64.9,1281.7,66.1z"/>
	
		<linearGradient id="SVGID_6_" gradientUnits="userSpaceOnUse" x1="345.264" y1="788.1814" x2="346.5058" y2="786.7755" gradientTransform="matrix(22.6274 22.6274 22.6274 -22.6274 -24711.2754 10068.9453)">
		<stop  offset="0" style="stop-color:#FF52C1"/>
		<stop  offset="1" style="stop-color:#9952FF"/>
	</linearGradient>
	<path class="st5" d="M936.7,43.1l18.4,18.4c1.2,1.2,1.2,3.1,0,4.2l-18.4,18.4c-1.2,1.2-3.1,1.2-4.2,0l-18.4-18.4
		c-1.2-1.2-1.2-3.1,0-4.2l18.4-18.4C933.7,41.9,935.6,41.9,936.7,43.1z"/>
	
		<linearGradient id="SVGID_7_" gradientUnits="userSpaceOnUse" x1="345.264" y1="788.1814" x2="346.5058" y2="786.7755" gradientTransform="matrix(22.6274 22.6274 22.6274 -22.6274 -24942.2754 10191.9453)">
		<stop  offset="0" style="stop-color:#FF52C1"/>
		<stop  offset="1" style="stop-color:#9952FF"/>
	</linearGradient>
	<path class="st6" d="M705.7,166.1l18.4,18.4c1.2,1.2,1.2,3.1,0,4.2l-18.4,18.4c-1.2,1.2-3.1,1.2-4.2,0l-18.4-18.4
		c-1.2-1.2-1.2-3.1,0-4.2l18.4-18.4C702.7,164.9,704.6,164.9,705.7,166.1z"/>
	
		<linearGradient id="SVGID_8_" gradientUnits="userSpaceOnUse" x1="338.3034" y1="781.3768" x2="339.5452" y2="779.9709" gradientTransform="matrix(12.0208 12.0208 12.0208 -12.0208 -12221.8965 5923.2217)">
		<stop  offset="0" style="stop-color:#FF52C1"/>
		<stop  offset="1" style="stop-color:#9952FF"/>
	</linearGradient>
	<path class="st7" d="M1237.7,594.7l10.6,10.6c0.4,0.4,0.4,1,0,1.4l-10.6,10.6c-0.4,0.4-1,0.4-1.4,0l-10.6-10.6
		c-0.4-0.4-0.4-1,0-1.4l10.6-10.6C1236.7,594.3,1237.3,594.3,1237.7,594.7z"/>
	
		<linearGradient id="SVGID_9_" gradientUnits="userSpaceOnUse" x1="348.2847" y1="791.4843" x2="349.1385" y2="790.2754" gradientTransform="matrix(37.4767 37.4767 37.4767 -37.4767 -42611.2031 17313.1602)">
		<stop  offset="0" style="stop-color:#FF52C1"/>
		<stop  offset="1" style="stop-color:#9952FF"/>
	</linearGradient>
	<path class="st8" d="M96.5,737.4l11.7-11.7c2-2,5.1-2,7.1,0c2,2,2,5.1,0,7.1l-11.7,11.7l11.7,11.7c2,2,2,5.1,0,7.1
		c-2,2-5.1,2-7.1,0l-11.7-11.7l-11.7,11.7c-2,2-5.1,2-7.1,0c-2-2-2-5.1,0-7.1l11.7-11.7l-11.7-11.7c-2-2-2-5.1,0-7.1
		c2-2,5.1-2,7.1,0L96.5,737.4z"/>
</g>
</svg>
