<?xml version="1.0" encoding="utf-8"?>
<!-- Generator: Adobe Illustrator 24.2.3, SVG Export Plug-In . SVG Version: 6.00 Build 0)  -->
<svg version="1.1" id="Layer_1" xmlns="http://www.w3.org/2000/svg" xmlns:xlink="http://www.w3.org/1999/xlink" x="0px" y="0px"
	 viewBox="0 0 375 373" style="enable-background:new 0 0 375 373;" xml:space="preserve">
<style type="text/css">
	.st0{fill-rule:evenodd;clip-rule:evenodd;fill:url(#SVGID_1_);}
	.st1{fill-rule:evenodd;clip-rule:evenodd;fill:url(#SVGID_2_);}
	.st2{opacity:0.558;fill-rule:evenodd;clip-rule:evenodd;fill:url(#SVGID_3_);enable-background:new    ;}
	.st3{opacity:0.387;fill-rule:evenodd;clip-rule:evenodd;fill:url(#SVGID_4_);enable-background:new    ;}
	.st4{opacity:0.387;fill-rule:evenodd;clip-rule:evenodd;fill:url(#SVGID_5_);enable-background:new    ;}
	.st5{opacity:0.387;fill-rule:evenodd;clip-rule:evenodd;fill:url(#SVGID_6_);enable-background:new    ;}
	.st6{opacity:0.387;fill-rule:evenodd;clip-rule:evenodd;fill:url(#SVGID_7_);enable-background:new    ;}
	.st7{opacity:0.503;fill-rule:evenodd;clip-rule:evenodd;fill:url(#SVGID_8_);enable-background:new    ;}
</style>
<g>
	
		<linearGradient id="SVGID_1_" gradientUnits="userSpaceOnUse" x1="-115.502" y1="583.3964" x2="-117.7712" y2="581.2662" gradientTransform="matrix(375 0 0 -313.664 44132 182657.1094)">
		<stop  offset="0" style="stop-color:#FF52C1"/>
		<stop  offset="7.300000e-02" style="stop-color:#F952C5"/>
		<stop  offset="1" style="stop-color:#9952FF;stop-opacity:0"/>
	</linearGradient>
	<path class="st0" d="M0,265.7L319.7,0H375v73.6L0,313.7V265.7z"/>
	
		<linearGradient id="SVGID_2_" gradientUnits="userSpaceOnUse" x1="-116.1422" y1="583.2039" x2="-118.3186" y2="581.0391" gradientTransform="matrix(-375 0 0 -258.228 -43993 150439.9219)">
		<stop  offset="0" style="stop-color:#FF52C1"/>
		<stop  offset="0" style="stop-color:#F952C5"/>
		<stop  offset="1" style="stop-color:#9952FF;stop-opacity:0"/>
	</linearGradient>
	<path class="st1" d="M375,318.7L0,102v119.2l375,139.1V318.7z"/>
	
		<linearGradient id="SVGID_3_" gradientUnits="userSpaceOnUse" x1="-109.5894" y1="580.5952" x2="-108.3476" y2="579.1893" gradientTransform="matrix(19.799 19.799 19.799 -19.799 -8991.7314 13831.0918)">
		<stop  offset="0" style="stop-color:#FF52C1"/>
		<stop  offset="1" style="stop-color:#9952FF"/>
	</linearGradient>
	<path class="st2" d="M334.9,163.1l15.6,15.6c1.2,1.2,1.2,3.1,0,4.2l-15.6,15.6c-1.2,1.2-3.1,1.2-4.2,0l-15.6-15.6
		c-1.2-1.2-1.2-3.1,0-4.2l15.6-15.6C331.8,161.9,333.7,161.9,334.9,163.1z"/>
	
		<linearGradient id="SVGID_4_" gradientUnits="userSpaceOnUse" x1="-92.1558" y1="575.7436" x2="-90.914" y2="574.3378" gradientTransform="matrix(6.364 6.364 6.364 -6.364 -2954.8779 4612.1367)">
		<stop  offset="0" style="stop-color:#FF52C1"/>
		<stop  offset="1" style="stop-color:#9952FF"/>
	</linearGradient>
	<path class="st3" d="M123.1,360.7l4.9,4.9c0.4,0.4,0.4,1,0,1.4l-4.9,4.9c-0.4,0.4-1,0.4-1.4,0l-4.9-4.9c-0.4-0.4-0.4-1,0-1.4
		l4.9-4.9C122,360.3,122.7,360.3,123.1,360.7z"/>
	
		<linearGradient id="SVGID_5_" gradientUnits="userSpaceOnUse" x1="-105.0016" y1="579.3184" x2="-103.7598" y2="577.9126" gradientTransform="matrix(12.7279 12.7279 12.7279 -12.7279 -5871.7559 9045.2734)">
		<stop  offset="0" style="stop-color:#FF52C1"/>
		<stop  offset="1" style="stop-color:#9952FF"/>
	</linearGradient>
	<path class="st4" d="M165.4,332.7l11.3,11.3c0.4,0.4,0.4,1,0,1.4l-11.3,11.3c-0.4,0.4-1,0.4-1.4,0l-11.3-11.3c-0.4-0.4-0.4-1,0-1.4
		l11.3-11.3C164.4,332.3,165,332.3,165.4,332.7z"/>
	
		<linearGradient id="SVGID_6_" gradientUnits="userSpaceOnUse" x1="-101.3314" y1="578.2971" x2="-100.0896" y2="576.8912" gradientTransform="matrix(9.8995 9.8995 9.8995 -9.8995 -4581.5361 6807.5454)">
		<stop  offset="0" style="stop-color:#FF52C1"/>
		<stop  offset="1" style="stop-color:#9952FF"/>
	</linearGradient>
	<path class="st5" d="M140.4,77.7l8.5,8.5c0.4,0.4,0.4,1,0,1.4l-8.5,8.5c-0.4,0.4-1,0.4-1.4,0l-8.5-8.5c-0.4-0.4-0.4-1,0-1.4
		l8.5-8.5C139.4,77.3,140,77.3,140.4,77.7z"/>
	
		<linearGradient id="SVGID_7_" gradientUnits="userSpaceOnUse" x1="-104.246" y1="579.1082" x2="-103.0042" y2="577.7023" gradientTransform="matrix(12.0208 12.0208 12.0208 -12.0208 -5382.6592 8549.5918)">
		<stop  offset="0" style="stop-color:#FF52C1"/>
		<stop  offset="1" style="stop-color:#9952FF"/>
	</linearGradient>
	<path class="st6" d="M325.7,332.7l10.6,10.6c0.4,0.4,0.4,1,0,1.4l-10.6,10.6c-0.4,0.4-1,0.4-1.4,0l-10.6-10.6c-0.4-0.4-0.4-1,0-1.4
		l10.6-10.6C324.7,332.3,325.3,332.3,325.7,332.7z"/>
	
		<linearGradient id="SVGID_8_" gradientUnits="userSpaceOnUse" x1="-112.342" y1="581.3612" x2="-111.1002" y2="579.9553" gradientTransform="matrix(29.6985 29.6985 29.6985 -29.6985 -13864.1973 20862.4355)">
		<stop  offset="0" style="stop-color:#FF52C1"/>
		<stop  offset="1" style="stop-color:#9952FF"/>
	</linearGradient>
	<path class="st7" d="M65.7,254.9l25.5,25.5c1.2,1.2,1.2,3.1,0,4.2l-25.5,25.5c-1.2,1.2-3.1,1.2-4.2,0L36,284.6
		c-1.2-1.2-1.2-3.1,0-4.2l25.5-25.5C62.6,253.7,64.5,253.7,65.7,254.9z"/>
</g>
</svg>
