<?xml version="1.0" encoding="utf-8"?>
<!-- Generator: Adobe Illustrator 24.2.3, SVG Export Plug-In . SVG Version: 6.00 Build 0)  -->
<svg version="1.1" id="Layer_1" xmlns="http://www.w3.org/2000/svg" xmlns:xlink="http://www.w3.org/1999/xlink" x="0px" y="0px"
	 viewBox="0 0 264 49" style="enable-background:new 0 0 264 49;" xml:space="preserve">
<style type="text/css">
	.st0{fill:#FFFFFF;}
</style>
<g>
	<path class="st0" d="M64.2,10.3c-5.9,0-12.1,1.3-18.3,3.1c-0.8,0.2-1.6,0.7-2,1.3c-0.4,0.6-0.5,1.2-0.6,1.8
		c-0.6,3.4-0.5,6.7-0.4,10.4c0,0.8,0.2,1.8,0.5,2.5c0.4,0.6,1.1,1,2,1.1c1.1,0.2,2.2,0.3,3.2,0.4l-0.2,6.7c0,0.5,0.2,1,0.5,1.2
		c0.3,0.2,0.6,0.3,0.9,0.3c0.7,0,1.4-0.2,1.8-1c1.7-3.2,2.7-4.7,4.8-6.8c5.5,0.1,10.3-0.2,15.7-0.6c1.9,0,3.2-1.6,3.6-2.9
		c1-3.2,1.2-7.2,1.3-11.3c0-1.6-0.5-3.2-1.5-4c-0.9-0.8-2.1-1-3.1-1.3C69.6,10.7,66.7,10.3,64.2,10.3L64.2,10.3z M72.1,12.8
		c1,0.3,2,0.6,2.5,1c1,1,0.9,1.7,0.9,2.8c-0.1,3.9-0.3,7.7-1.2,10.6c-0.4,1.1-1,1.8-2.3,2c-5.5,0.4-10.3,0.7-15.8,0.6
		c-0.2,0-0.4,0.1-0.6,0.2c-2.3,2.4-3.5,4-5.3,7.4c0,0.1-0.1,0.1-0.2,0.1c-0.1,0-0.1-0.1-0.1-0.1l0.2-7.2c0-0.4-0.3-0.7-0.7-0.8
		c-1.3-0.1-2.6-0.3-3.9-0.5c-0.6-0.1-0.8-0.2-0.9-0.5c-0.3-0.6-0.3-1-0.3-1.6c-0.1-3.7-0.2-6.8,0.4-10c0.1-0.5,0.2-1,0.4-1.4
		c0.3-0.5,0.8-0.6,1.3-0.7c6.1-1.7,12-2.9,17.6-2.9C66.9,11.9,69.8,12.2,72.1,12.8z M51,19c-0.8,1-0.8,2.4-0.1,3.3
		c0.3,0.5,0.9,0.9,1.5,1c0.8,0.1,1.4-0.3,1.9-0.7c1-0.9,1.1-2.5,0.4-3.6c-0.4-0.6-1-0.9-1.7-0.9C52.1,18,51.5,18.4,51,19z
		 M60.1,18.2c-0.8,0-1.5,0.6-1.9,1.2c-0.5,0.7-0.7,1.6-0.4,2.5c0.7,1.7,3.3,1.7,4.3,0c0.5-0.8,0.3-1.7,0-2.3
		c-0.3-0.7-0.9-1.2-1.6-1.3C60.3,18.2,60.2,18.2,60.1,18.2z M67.5,18.3c-0.3,0-0.5,0-0.8,0.1c-1,0.3-1.9,1.3-1.7,2.6
		c0.1,0.7,0.4,1.3,0.9,1.8c0.6,0.5,1.4,0.6,2.2,0.5c1-0.2,1.6-1,1.8-1.7c0.2-0.8,0.2-1.5-0.3-2.2C69.1,18.7,68.3,18.4,67.5,18.3z
		 M53,19.6c0.2,0,0.3,0.1,0.5,0.3c0.3,0.5,0.2,1.2-0.1,1.5c-0.3,0.3-0.6,0.3-0.7,0.3c-0.1,0-0.3-0.1-0.4-0.3c-0.3-0.4-0.3-1,0-1.4
		C52.4,19.8,52.7,19.6,53,19.6z M60.2,19.8c0,0,0.4,0.2,0.5,0.5c0.2,0.3,0.2,0.6,0,0.8c-0.4,0.8-1.4,0.5-1.5,0.2
		c-0.1-0.1,0-0.6,0.2-1C59.7,19.9,60.1,19.7,60.2,19.8L60.2,19.8z M68.3,20.3c0,0.1,0.2,0.5,0.1,0.8c-0.1,0.3-0.2,0.5-0.6,0.6
		c-0.5,0.1-0.7,0-0.9-0.2c-0.2-0.2-0.3-0.4-0.4-0.7c-0.1-0.7,0.2-0.9,0.6-1C67.6,19.8,68.1,20,68.3,20.3z M86.9,13.4
		c0-0.2,0.1-0.4,0.2-0.5c0.1-0.2,0.3-0.2,0.5-0.2h5.2c0.2,0,0.4,0.1,0.5,0.2c0.2,0.1,0.3,0.3,0.3,0.6v8.3h8.7v-8.3
		c0-0.4,0.3-0.8,0.8-0.8c0,0,0,0,0,0h5.2c0.2,0,0.4,0.1,0.6,0.2c0.2,0.1,0.3,0.3,0.3,0.6V38c0,0.3-0.1,0.5-0.2,0.6
		c-0.2,0.1-0.4,0.2-0.6,0.2h-5.2c-0.2,0-0.4-0.1-0.6-0.2c-0.1-0.1-0.2-0.3-0.2-0.6V28h-8.7v10c0,0.2-0.1,0.4-0.2,0.6
		c-0.2,0.1-0.4,0.2-0.6,0.2h-5.2c-0.5,0-0.7-0.2-0.8-0.7L86.9,13.4z M135,38.5c-0.1,0.1-0.3,0.2-0.5,0.2c-0.2,0-0.3,0.1-0.5,0.1
		h-2.7c-0.2,0-0.4,0-0.5-0.1c-0.1-0.1-0.3-0.2-0.4-0.3c-0.1-0.1-0.2-0.3-0.3-0.4c-0.1-0.2-0.1-0.3-0.2-0.5l-0.5-2.3
		c-0.2,0.4-0.4,0.8-0.8,1.2c-0.4,0.5-0.8,0.9-1.3,1.3c-0.6,0.4-1.2,0.8-1.8,1c-0.7,0.3-1.5,0.4-2.5,0.4c-1.3,0-2.6-0.3-3.6-0.8
		c-1.1-0.5-2-1.2-2.8-2.1c-0.8-0.9-1.4-1.9-1.8-3.1c-0.4-1.2-0.6-2.5-0.6-3.8V17.8c0-0.4,0.1-0.8,0.3-1c0.2-0.2,0.5-0.3,0.9-0.3h4.1
		c0.5,0,0.8,0.1,1,0.3c0.2,0.2,0.3,0.5,0.3,1v11.4c0,0.5,0.1,1,0.3,1.4c0.5,0.9,1.2,1.6,2.2,2c0.5,0.2,1,0.3,1.5,0.3
		c0.4,0,0.9-0.1,1.3-0.3c0.5-0.2,0.9-0.5,1.3-0.8c0.4-0.3,0.7-0.7,0.9-1.2c0.2-0.5,0.4-0.9,0.4-1.4V17.7c0-0.2,0-0.4,0.1-0.6
		c0.1-0.2,0.2-0.3,0.3-0.5c0.2-0.1,0.3-0.2,0.4-0.2c0.1,0,0.3,0,0.5,0h4c0.5,0,0.9,0.1,1.1,0.4c0.2,0.2,0.3,0.6,0.3,1v19.7
		c0,0.2-0.1,0.4-0.2,0.6c-0.1,0.2-0.2,0.3-0.4,0.4L135,38.5z M155.4,36c-0.3,0.3-0.7,0.7-1,1c-0.4,0.4-0.8,0.7-1.3,1
		s-0.9,0.6-1.5,0.8c-0.5,0.2-1.1,0.3-1.7,0.3c-1.6,0-3.1-0.3-4.4-0.9c-1.3-0.6-2.5-1.4-3.5-2.5c-1-1-1.7-2.3-2.3-3.7
		c-0.5-1.4-0.8-2.9-0.8-4.5c0-1.6,0.3-3.1,0.8-4.5c0.5-1.4,1.3-2.6,2.3-3.7c1-1,2.2-1.9,3.5-2.4c1.3-0.6,2.8-0.9,4.4-0.9
		c0.6,0,1.2,0.1,1.8,0.3c0.5,0.2,1,0.4,1.5,0.7c0.4,0.3,0.8,0.6,1.2,1c0.4,0.4,0.7,0.7,1,1.1v-8c0-0.4,0.1-0.7,0.3-0.9
		c0.2-0.3,0.6-0.4,1-0.4h4c0.2,0,0.3,0,0.5,0.1c0.2,0.1,0.3,0.2,0.5,0.3c0.1,0.1,0.3,0.3,0.3,0.4c0.1,0.2,0.1,0.3,0.1,0.5v26.3
		c0,0.9-0.5,1.4-1.4,1.4h-3.4c-0.2,0-0.4,0-0.5-0.1c-0.1-0.1-0.2-0.1-0.3-0.3c-0.1-0.1-0.2-0.3-0.2-0.4c-0.1-0.2-0.2-0.4-0.3-0.6
		L155.4,36z M145.3,27.6c0,0.8,0.1,1.5,0.4,2.2c0.2,0.6,0.6,1.2,1,1.8c0.4,0.5,1,0.9,1.6,1.2c0.6,0.3,1.3,0.4,2.1,0.4
		c0.8,0,1.5-0.1,2.1-0.4c0.7-0.3,1.2-0.6,1.7-1.1c0.5-0.5,0.9-1.1,1.2-1.7c0.3-0.7,0.5-1.4,0.5-2.1v-0.2c0-0.8-0.1-1.5-0.4-2.1
		c-0.3-0.7-0.7-1.3-1.2-1.8c-0.5-0.5-1.1-0.9-1.8-1.2c-0.7-0.3-1.4-0.5-2.2-0.5c-0.8,0-1.5,0.1-2.1,0.5c-0.6,0.3-1.2,0.7-1.6,1.2
		c-0.5,0.5-0.8,1.1-1,1.8C145.4,26.2,145.3,26.9,145.3,27.6z M182.6,36c-0.3,0.3-0.7,0.7-1,1c-0.4,0.4-0.8,0.7-1.3,1
		s-0.9,0.6-1.5,0.8c-0.5,0.2-1.1,0.3-1.7,0.3c-1.6,0-3.1-0.3-4.4-0.9c-1.3-0.6-2.5-1.4-3.5-2.5c-1-1-1.7-2.3-2.3-3.7
		c-0.5-1.4-0.8-2.9-0.8-4.5c0-1.6,0.3-3.1,0.8-4.5c0.5-1.4,1.3-2.6,2.3-3.7c1-1,2.2-1.9,3.5-2.4c1.3-0.6,2.8-0.9,4.4-0.9
		c0.6,0,1.2,0.1,1.8,0.3c0.5,0.2,1,0.4,1.5,0.7c0.4,0.3,0.8,0.6,1.2,1c0.4,0.4,0.7,0.7,1,1.1v-8c0-0.4,0.1-0.7,0.3-0.9
		c0.2-0.3,0.6-0.4,1-0.4h4c0.2,0,0.3,0,0.5,0.1c0.2,0.1,0.3,0.2,0.5,0.3c0.1,0.1,0.3,0.3,0.3,0.4c0.1,0.2,0.1,0.3,0.1,0.5v26.3
		c0,0.9-0.5,1.4-1.4,1.4h-3.4c-0.2,0-0.4,0-0.5-0.1c-0.1-0.1-0.2-0.1-0.3-0.3c-0.1-0.1-0.2-0.3-0.2-0.4c-0.1-0.2-0.2-0.4-0.3-0.6
		L182.6,36z M172.4,27.6c0,0.8,0.1,1.5,0.4,2.2c0.2,0.6,0.6,1.2,1,1.8c0.4,0.5,1,0.9,1.6,1.2c0.6,0.3,1.3,0.4,2.1,0.4
		c0.7,0,1.4-0.1,2.1-0.4c0.6-0.3,1.2-0.6,1.7-1.1c0.5-0.5,0.9-1.1,1.2-1.7c0.3-0.7,0.5-1.4,0.5-2.1v-0.2c0-1.5-0.6-2.9-1.6-3.9
		c-0.5-0.5-1.1-0.9-1.8-1.2c-0.7-0.3-1.4-0.5-2.2-0.5c-0.8,0-1.5,0.1-2.1,0.5c-0.6,0.3-1.2,0.7-1.6,1.2c-0.5,0.5-0.8,1.1-1,1.8
		C172.6,26.2,172.4,26.9,172.4,27.6L172.4,27.6z M194,11.1c0-0.4,0.1-0.7,0.3-0.9c0.2-0.3,0.5-0.4,1-0.4h4.3c0.1,0,0.2,0,0.4,0.1
		c0.1,0.1,0.3,0.2,0.4,0.3c0.1,0.1,0.2,0.3,0.3,0.4c0.1,0.2,0.1,0.3,0.1,0.5v26.3c0,0.4-0.1,0.8-0.4,1c-0.3,0.2-0.6,0.3-1,0.3h-4.1
		c-0.5,0-0.8-0.1-1-0.3c-0.2-0.2-0.3-0.6-0.3-1L194,11.1z M223.6,36.1c-1,0.9-2.2,1.7-3.5,2.2c-1.3,0.5-2.7,0.8-4.1,0.8
		c-1.6,0-3.1-0.3-4.6-0.9c-1.4-0.6-2.7-1.4-3.8-2.4c-1.1-1-2-2.3-2.6-3.7c-0.6-1.4-0.9-2.9-0.9-4.6c0-1,0.1-2,0.4-3
		c0.3-1,0.6-1.9,1.1-2.7c0.5-0.8,1-1.6,1.7-2.3c1.3-1.4,3-2.5,4.9-3c1-0.3,2-0.4,3-0.4c1,0,1.9,0.1,2.8,0.4c1.8,0.5,3.4,1.5,4.8,2.8
		c0.7,0.6,1.2,1.4,1.7,2.2c0.5,0.8,0.9,1.6,1.1,2.5c0.3,0.9,0.4,1.8,0.4,2.7c0,0.6,0,1.1,0,1.5c0,0.4-0.1,0.7-0.3,0.9
		c-0.2,0.2-0.4,0.4-0.8,0.5c-0.4,0.1-0.9,0.1-1.7,0.1h-12.7c0.1,0.8,0.4,1.4,0.7,1.9c0.4,0.5,0.8,0.9,1.2,1.2c0.5,0.3,1,0.5,1.5,0.6
		c0.5,0.1,1,0.2,1.5,0.2c0.4,0,0.9,0,1.3-0.1c0.4-0.1,0.9-0.2,1.3-0.4c0.4-0.1,0.8-0.3,1.1-0.5c0.3-0.2,0.6-0.4,0.8-0.6
		c0.2-0.2,0.3-0.3,0.5-0.3c0.1-0.1,0.3-0.1,0.4-0.1c0.2,0,0.3,0.1,0.5,0.2c0.2,0.1,0.3,0.3,0.5,0.5l1.9,2.1c0.1,0.2,0.2,0.3,0.2,0.4
		c0,0.1,0.1,0.3,0.1,0.4c0,0.2-0.1,0.4-0.2,0.6C223.9,35.8,223.8,36,223.6,36.1L223.6,36.1z M215.1,21.5c-0.5,0-0.9,0.1-1.3,0.3
		c-0.4,0.2-0.8,0.4-1.2,0.7c-0.4,0.3-0.7,0.7-1,1c-0.3,0.4-0.5,0.8-0.7,1.2h9c-0.2-0.4-0.5-0.9-0.8-1.3c-0.3-0.4-0.6-0.7-1-1
		c-0.4-0.3-0.8-0.5-1.3-0.7C216.3,21.5,215.8,21.5,215.1,21.5L215.1,21.5z"/>
</g>
</svg>
