<?xml version="1.0" encoding="utf-8"?>
<!-- Generator: Adobe Illustrator 24.2.3, SVG Export Plug-In . SVG Version: 6.00 Build 0)  -->
<svg version="1.1" id="Layer_1" xmlns="http://www.w3.org/2000/svg" xmlns:xlink="http://www.w3.org/1999/xlink" x="0px" y="0px"
	 viewBox="0 0 709 506" style="enable-background:new 0 0 709 506;" xml:space="preserve">
<style type="text/css">
	.st0{filter:url(#a);}
	.st1{fill-rule:evenodd;clip-rule:evenodd;}
	.st2{fill-rule:evenodd;clip-rule:evenodd;fill:#FFFFFF;}
	.st3{filter:url(#c);}
	.st4{fill-rule:evenodd;clip-rule:evenodd;fill:#00252E;}
	.st5{fill-rule:evenodd;clip-rule:evenodd;fill:#E1E8EE;}
	.st6{fill-rule:evenodd;clip-rule:evenodd;fill:#D8D8D8;}
	.st7{fill-rule:evenodd;clip-rule:evenodd;fill:url(#SVGID_1_);}
	.st8{fill-rule:evenodd;clip-rule:evenodd;fill:#A7B9C8;}
	.st9{fill-rule:evenodd;clip-rule:evenodd;fill:url(#SVGID_2_);}
	.st10{fill-rule:evenodd;clip-rule:evenodd;fill:url(#SVGID_3_);}
	.st11{filter:url(#h);}
	.st12{filter:url(#j);}
	.st13{fill-rule:evenodd;clip-rule:evenodd;fill:url(#SVGID_4_);}
	.st14{fill-rule:evenodd;clip-rule:evenodd;fill:url(#SVGID_5_);}
	.st15{fill-rule:evenodd;clip-rule:evenodd;fill:url(#SVGID_6_);}
	.st16{fill-rule:evenodd;clip-rule:evenodd;fill:url(#SVGID_7_);}
	.st17{fill-rule:evenodd;clip-rule:evenodd;fill:url(#SVGID_8_);}
	.st18{fill-rule:evenodd;clip-rule:evenodd;fill:url(#SVGID_9_);}
	.st19{fill-rule:evenodd;clip-rule:evenodd;fill:url(#SVGID_10_);}
	.st20{fill-rule:evenodd;clip-rule:evenodd;fill:url(#SVGID_11_);}
</style>
<filter  filterUnits="objectBoundingBox" height="148.1%" id="j" width="108.2%" x="-4.1%" y="-24.1%">
	<feOffset  in="SourceAlpha" result="shadowOffsetOuter1"></feOffset>
	<feGaussianBlur  in="shadowOffsetOuter1" result="shadowBlurOuter1" stdDeviation="3"></feGaussianBlur>
	<feColorMatrix  in="shadowBlurOuter1" values="0 0 0 0 0 0 0 0 0 0.145098039 0 0 0 0 0.180392157 0 0 0 0.181838768 0">
		</feColorMatrix>
</filter>
<filter  filterUnits="objectBoundingBox" height="105.1%" id="h" width="108.2%" x="-4.1%" y="-2.6%">
	<feOffset  in="SourceAlpha" result="shadowOffsetOuter1"></feOffset>
	<feGaussianBlur  in="shadowOffsetOuter1" result="shadowBlurOuter1" stdDeviation="3"></feGaussianBlur>
	<feColorMatrix  in="shadowBlurOuter1" values="0 0 0 0 0 0 0 0 0 0.145098039 0 0 0 0 0.180392157 0 0 0 0.181838768 0">
		</feColorMatrix>
</filter>
<filter  filterUnits="objectBoundingBox" height="147.9%" id="c" width="103.2%" x="-1.6%" y="-24%">
	<feOffset  in="SourceAlpha" result="shadowOffsetOuter1"></feOffset>
	<feGaussianBlur  in="shadowOffsetOuter1" result="shadowBlurOuter1" stdDeviation="3.5"></feGaussianBlur>
	<feColorMatrix  in="shadowBlurOuter1" values="0 0 0 0 0 0 0 0 0 0.145098039 0 0 0 0 0.180392157 0 0 0 0.181838768 0">
		</feColorMatrix>
</filter>
<filter  filterUnits="objectBoundingBox" height="105.1%" id="a" width="103.2%" x="-1.6%" y="-2.6%">
	<feOffset  in="SourceAlpha" result="shadowOffsetOuter1"></feOffset>
	<feGaussianBlur  in="shadowOffsetOuter1" result="shadowBlurOuter1" stdDeviation="3.5"></feGaussianBlur>
	<feColorMatrix  in="shadowBlurOuter1" values="0 0 0 0 0 0 0 0 0 0.145098039 0 0 0 0 0.180392157 0 0 0 0.181838768 0">
		</feColorMatrix>
</filter>
<g>
	<g transform="translate(7 7)">
		<g class="st0">
			<path id="b_2_" class="st1" d="M13.7,0h630.2c7.6,0,13.7,6.1,13.7,13.7v383.4c0,7.6-6.1,13.7-13.7,13.7H13.7
				c-7.6,0-13.7-6.1-13.7-13.7V13.7C0,6.1,6.1,0,13.7,0z"/>
		</g>
		<g>
			<path id="b_1_" class="st2" d="M13.7,0h630.2c7.6,0,13.7,6.1,13.7,13.7v383.4c0,7.6-6.1,13.7-13.7,13.7H13.7
				c-7.6,0-13.7-6.1-13.7-13.7V13.7C0,6.1,6.1,0,13.7,0z"/>
		</g>
		<g class="st3">
			<path id="d_2_" class="st1" d="M13.7,0h630.2c7.6,0,13.7,6.1,13.7,13.7v30.1H0V13.7C0,6.1,6.1,0,13.7,0z"/>
		</g>
		<g>
			<path id="d_1_" class="st4" d="M13.7,0h630.2c7.6,0,13.7,6.1,13.7,13.7v30.1H0V13.7C0,6.1,6.1,0,13.7,0z"/>
		</g>
		<path class="st5" d="M52.7,13.7h130.2c1.9,0,3.4,1.5,3.4,3.4v9.6c0,1.9-1.5,3.4-3.4,3.4H52.7c-1.9,0-3.4-1.5-3.4-3.4v-9.6
			C49.3,15.2,50.9,13.7,52.7,13.7z"/>
		<g transform="translate(591.874 15.064)">
			<path class="st6" d="M1.4,0h19.2c0.8,0,1.4,0.6,1.4,1.4v0c0,0.8-0.6,1.4-1.4,1.4H1.4C0.6,2.7,0,2.1,0,1.4v0C0,0.6,0.6,0,1.4,0z"
				/>
			<path class="st6" d="M1.4,5.5h19.2c0.8,0,1.4,0.6,1.4,1.4v0c0,0.8-0.6,1.4-1.4,1.4H1.4C0.6,8.2,0,7.6,0,6.8v0
				C0,6.1,0.6,5.5,1.4,5.5z"/>
			<path class="st6" d="M1.4,11h19.2c0.8,0,1.4,0.6,1.4,1.4v0c0,0.8-0.6,1.4-1.4,1.4H1.4c-0.8,0-1.4-0.6-1.4-1.4v0
				C0,11.6,0.6,11,1.4,11z"/>
		</g>
		<g transform="translate(49.323 94.492)">
			
				<linearGradient id="SVGID_1_" gradientUnits="userSpaceOnUse" x1="-7.8866" y1="546.5858" x2="-7.2748" y2="545.1682" gradientTransform="matrix(65.764 0 0 -65.734 530.5899 35913.625)">
				<stop  offset="0" style="stop-color:#FAD961"/>
				<stop  offset="1" style="stop-color:#FF52C1"/>
			</linearGradient>
			<ellipse class="st7" cx="32.9" cy="32.9" rx="32.9" ry="32.9"/>
			<g transform="translate(104.126 8.217)">
				<path class="st5" d="M2.1,0h74.7c1.1,0,2.1,0.9,2.1,2.1v6.8c0,1.1-0.9,2.1-2.1,2.1H2.1C0.9,11,0,10,0,8.9V2.1C0,0.9,0.9,0,2.1,0
					z"/>
				<path class="st5" d="M2.1,21.9H272c1.1,0,2.1,0.9,2.1,2.1v1.4c0,1.1-0.9,2.1-2.1,2.1H2.1c-1.1,0-2.1-0.9-2.1-2.1V24
					C0,22.8,0.9,21.9,2.1,21.9z"/>
				<path class="st5" d="M2.1,32.9h247.1c1.1,0,2.1,0.9,2.1,2.1v1.4c0,1.1-0.9,2.1-2.1,2.1H2.1c-1.1,0-2.1-0.9-2.1-2.1v-1.4
					C0,33.8,0.9,32.9,2.1,32.9z"/>
				<path class="st5" d="M2.1,43.8h224.2c1.1,0,2.1,0.9,2.1,2.1v1.4c0,1.1-0.9,2.1-2.1,2.1H2.1c-1.1,0-2.1-0.9-2.1-2.1v-1.4
					C0,44.7,0.9,43.8,2.1,43.8z"/>
			</g>
			<g transform="translate(411.024 24.65)">
				<ellipse class="st8" cx="8.2" cy="8.2" rx="8.2" ry="8.2"/>
				<ellipse class="st8" cx="52.1" cy="8.2" rx="8.2" ry="8.2"/>
				<ellipse class="st8" cx="30.1" cy="8.2" rx="8.2" ry="8.2"/>
				<ellipse class="st8" cx="74" cy="8.2" rx="8.2" ry="8.2"/>
				<ellipse class="st8" cx="95.9" cy="8.2" rx="8.2" ry="8.2"/>
			</g>
		</g>
		<g transform="translate(49.323 187.614)">
			
				<linearGradient id="SVGID_2_" gradientUnits="userSpaceOnUse" x1="-7.6178" y1="453.0818" x2="-7.6178" y2="452.0818" gradientTransform="matrix(61.654 0 0 -61.626 500.4924 27921.6172)">
				<stop  offset="0" style="stop-color:#00C7FA"/>
				<stop  offset="1" style="stop-color:#007DFA"/>
			</linearGradient>
			<ellipse class="st9" cx="30.8" cy="30.8" rx="30.8" ry="30.8"/>
			<g transform="translate(102.07 6.162)">
				<path class="st5" d="M2.1,0h74.7c1.1,0,2.1,0.9,2.1,2.1v6.8c0,1.1-0.9,2.1-2.1,2.1H2.1C0.9,11,0,10,0,8.9V2.1C0,0.9,0.9,0,2.1,0
					z"/>
				<path class="st5" d="M2.1,21.9H272c1.1,0,2.1,0.9,2.1,2.1v1.4c0,1.1-0.9,2.1-2.1,2.1H2.1c-1.1,0-2.1-0.9-2.1-2.1V24
					C0,22.8,0.9,21.9,2.1,21.9z"/>
				<path class="st5" d="M2.1,32.9h247.1c1.1,0,2.1,0.9,2.1,2.1v1.4c0,1.1-0.9,2.1-2.1,2.1H2.1c-1.1,0-2.1-0.9-2.1-2.1v-1.4
					C0,33.8,0.9,32.9,2.1,32.9z"/>
				<path class="st5" d="M2.1,43.8h224.2c1.1,0,2.1,0.9,2.1,2.1v1.4c0,1.1-0.9,2.1-2.1,2.1H2.1c-1.1,0-2.1-0.9-2.1-2.1v-1.4
					C0,44.7,0.9,43.8,2.1,43.8z"/>
			</g>
			<g transform="translate(408.969 22.596)">
				<ellipse class="st8" cx="8.2" cy="8.2" rx="8.2" ry="8.2"/>
				<ellipse class="st8" cx="52.1" cy="8.2" rx="8.2" ry="8.2"/>
				<ellipse class="st8" cx="30.1" cy="8.2" rx="8.2" ry="8.2"/>
			</g>
		</g>
		<g transform="translate(49.323 285.53)">
			
				<linearGradient id="SVGID_3_" gradientUnits="userSpaceOnUse" x1="-7.8779" y1="355.1384" x2="-7.2656" y2="354.0259" gradientTransform="matrix(61.654 0 0 -61.626 500.4924 21887.4453)">
				<stop  offset="0" style="stop-color:#FF52C1"/>
				<stop  offset="1" style="stop-color:#9952FF"/>
			</linearGradient>
			<ellipse class="st10" cx="30.8" cy="30.8" rx="30.8" ry="30.8"/>
			<g transform="translate(102.07 6.162)">
				<path class="st5" d="M2.1,0h74.7c1.1,0,2.1,0.9,2.1,2.1v6.8c0,1.1-0.9,2.1-2.1,2.1H2.1C0.9,11,0,10,0,8.9V2.1C0,0.9,0.9,0,2.1,0
					z"/>
				<path class="st5" d="M2.1,21.9H272c1.1,0,2.1,0.9,2.1,2.1v1.4c0,1.1-0.9,2.1-2.1,2.1H2.1c-1.1,0-2.1-0.9-2.1-2.1V24
					C0,22.8,0.9,21.9,2.1,21.9z"/>
				<path class="st5" d="M2.1,32.9h247.1c1.1,0,2.1,0.9,2.1,2.1v1.4c0,1.1-0.9,2.1-2.1,2.1H2.1c-1.1,0-2.1-0.9-2.1-2.1v-1.4
					C0,33.8,0.9,32.9,2.1,32.9z"/>
				<path class="st5" d="M2.1,43.8h224.2c1.1,0,2.1,0.9,2.1,2.1v1.4c0,1.1-0.9,2.1-2.1,2.1H2.1c-1.1,0-2.1-0.9-2.1-2.1v-1.4
					C0,44.7,0.9,43.8,2.1,43.8z"/>
			</g>
			<g transform="translate(408.969 22.596)">
				<ellipse class="st8" cx="8.2" cy="8.2" rx="8.2" ry="8.2"/>
				<ellipse class="st8" cx="52.1" cy="8.2" rx="8.2" ry="8.2"/>
				<ellipse class="st8" cx="30.1" cy="8.2" rx="8.2" ry="8.2"/>
				<ellipse class="st8" cx="74" cy="8.2" rx="8.2" ry="8.2"/>
			</g>
		</g>
	</g>
	<g transform="translate(483.787 149.422)">
		<g class="st11">
			<path id="i_2_" class="st1" d="M11.7,0h195.8c6.5,0,11.7,5.2,11.7,11.7v327.2c0,6.5-5.2,11.7-11.7,11.7H11.7
				c-6.5,0-11.7-5.2-11.7-11.7V11.7C0,5.2,5.2,0,11.7,0z"/>
		</g>
		<g>
			<path id="i_1_" class="st2" d="M11.7,0h195.8c6.5,0,11.7,5.2,11.7,11.7v327.2c0,6.5-5.2,11.7-11.7,11.7H11.7
				c-6.5,0-11.7-5.2-11.7-11.7V11.7C0,5.2,5.2,0,11.7,0z"/>
		</g>
	</g>
	<g transform="translate(483.787 149.422)">
		<g class="st12">
			<path id="k_2_" class="st1" d="M11.7,0h195.8c6.5,0,11.7,5.2,11.7,11.7v25.7H0V11.7C0,5.2,5.2,0,11.7,0z"/>
		</g>
		<g>
			<path id="k_1_" class="st4" d="M11.7,0h195.8c6.5,0,11.7,5.2,11.7,11.7v25.7H0V11.7C0,5.2,5.2,0,11.7,0z"/>
		</g>
	</g>
	<g transform="translate(505.8 162.277)">
		<path class="st5" d="M2.9,0h65.4c1.6,0,2.9,1.3,2.9,2.9v8.2c0,1.6-1.3,2.9-2.9,2.9H2.9C1.3,14,0,12.7,0,11.1V2.9
			C0,1.3,1.3,0,2.9,0z"/>
		<g transform="translate(155.111 1.169)">
			<path class="st6" d="M1.2,0h16.4c0.6,0,1.2,0.5,1.2,1.2l0,0c0,0.6-0.5,1.2-1.2,1.2H1.2C0.5,2.3,0,1.8,0,1.2l0,0
				C0,0.5,0.5,0,1.2,0z"/>
			<path class="st6" d="M1.2,4.7h16.4c0.6,0,1.2,0.5,1.2,1.2l0,0c0,0.6-0.5,1.2-1.2,1.2H1.2C0.5,7,0,6.5,0,5.8l0,0
				C0,5.2,0.5,4.7,1.2,4.7z"/>
			<path class="st6" d="M1.2,9.3h16.4c0.6,0,1.2,0.5,1.2,1.2l0,0c0,0.6-0.5,1.2-1.2,1.2H1.2c-0.6,0-1.2-0.5-1.2-1.2l0,0
				C0,9.9,0.5,9.3,1.2,9.3z"/>
		</g>
	</g>
	<g transform="translate(505.709 223.372)">
		
			<linearGradient id="SVGID_4_" gradientUnits="userSpaceOnUse" x1="-458.9117" y1="419.9534" x2="-458.2999" y2="418.5357" gradientTransform="matrix(20.552 0 0 -20.542 9435.2842 8621.792)">
			<stop  offset="0" style="stop-color:#FAD961"/>
			<stop  offset="1" style="stop-color:#FF52C1"/>
		</linearGradient>
		<ellipse class="st13" cx="10.3" cy="10.3" rx="10.3" ry="10.3"/>
		<g transform="translate(31.512 2.054)">
			<path class="st5" d="M0.6,0h38.1c0.3,0,0.6,0.3,0.6,0.6V3c0,0.3-0.3,0.6-0.6,0.6H0.6C0.3,3.7,0,3.4,0,3V0.6C0,0.3,0.3,0,0.6,0z"
				/>
			<path class="st5" d="M0.6,7.3h135.7c0.3,0,0.6,0.3,0.6,0.6v0.6c0,0.3-0.3,0.6-0.6,0.6H0.6C0.3,9.1,0,8.8,0,8.5V7.9
				C0,7.6,0.3,7.3,0.6,7.3z"/>
			<path class="st5" d="M0.6,11H125c0.3,0,0.6,0.3,0.6,0.6v0.6c0,0.3-0.3,0.6-0.6,0.6H0.6c-0.3,0-0.6-0.3-0.6-0.6v-0.6
				C0,11.2,0.3,11,0.6,11z"/>
			<path class="st5" d="M0.6,14.6h112.9c0.3,0,0.6,0.3,0.6,0.6v0.6c0,0.3-0.3,0.6-0.6,0.6H0.6c-0.3,0-0.6-0.3-0.6-0.6v-0.6
				C0,14.9,0.3,14.6,0.6,14.6z"/>
		</g>
	</g>
	<g transform="translate(505.709 317.864)">
		
			<linearGradient id="SVGID_5_" gradientUnits="userSpaceOnUse" x1="-458.9117" y1="325.4613" x2="-458.2999" y2="324.0437" gradientTransform="matrix(20.552 0 0 -20.542 9435.2842 6680.7373)">
			<stop  offset="0" style="stop-color:#FAD961"/>
			<stop  offset="1" style="stop-color:#FF52C1"/>
		</linearGradient>
		<ellipse class="st14" cx="10.3" cy="10.3" rx="10.3" ry="10.3"/>
		<g transform="translate(31.512 2.054)">
			<path class="st5" d="M0.6,0h38.1c0.3,0,0.6,0.3,0.6,0.6V3c0,0.3-0.3,0.6-0.6,0.6H0.6C0.3,3.7,0,3.4,0,3V0.6C0,0.3,0.3,0,0.6,0z"
				/>
			<path class="st5" d="M0.6,7.3h135.7c0.3,0,0.6,0.3,0.6,0.6v0.6c0,0.3-0.3,0.6-0.6,0.6H0.6C0.3,9.1,0,8.8,0,8.5V7.9
				C0,7.6,0.3,7.3,0.6,7.3z"/>
			<path class="st5" d="M0.6,11H125c0.3,0,0.6,0.3,0.6,0.6v0.6c0,0.3-0.3,0.6-0.6,0.6H0.6c-0.3,0-0.6-0.3-0.6-0.6v-0.6
				C0,11.2,0.3,11,0.6,11z"/>
			<path class="st5" d="M0.6,14.6h112.9c0.3,0,0.6,0.3,0.6,0.6v0.6c0,0.3-0.3,0.6-0.6,0.6H0.6c-0.3,0-0.6-0.3-0.6-0.6v-0.6
				C0,14.9,0.3,14.6,0.6,14.6z"/>
		</g>
	</g>
	<g transform="translate(505.709 254.87)">
		<g transform="translate(31.512 2.054)">
			<path class="st5" d="M0.6,0h38.1c0.3,0,0.6,0.3,0.6,0.6V3c0,0.3-0.3,0.6-0.6,0.6H0.6C0.3,3.7,0,3.4,0,3V0.6C0,0.3,0.3,0,0.6,0z"
				/>
			<path class="st5" d="M0.6,7.3h135.7c0.3,0,0.6,0.3,0.6,0.6v0.6c0,0.3-0.3,0.6-0.6,0.6H0.6C0.3,9.1,0,8.8,0,8.5V7.9
				C0,7.6,0.3,7.3,0.6,7.3z"/>
			<path class="st5" d="M0.6,11H125c0.3,0,0.6,0.3,0.6,0.6v0.6c0,0.3-0.3,0.6-0.6,0.6H0.6c-0.3,0-0.6-0.3-0.6-0.6v-0.6
				C0,11.2,0.3,11,0.6,11z"/>
			<path class="st5" d="M0.6,14.6h112.9c0.3,0,0.6,0.3,0.6,0.6v0.6c0,0.3-0.3,0.6-0.6,0.6H0.6c-0.3,0-0.6-0.3-0.6-0.6v-0.6
				C0,14.9,0.3,14.6,0.6,14.6z"/>
		</g>
		
			<linearGradient id="SVGID_6_" gradientUnits="userSpaceOnUse" x1="-458.5932" y1="388.2173" x2="-458.5932" y2="387.2173" gradientTransform="matrix(20.552 0 0 -20.542 9435.2842 7974.7603)">
			<stop  offset="0" style="stop-color:#00C7FA"/>
			<stop  offset="1" style="stop-color:#007DFA"/>
		</linearGradient>
		<ellipse class="st15" cx="10.3" cy="10.3" rx="10.3" ry="10.3"/>
	</g>
	<g transform="translate(505.709 349.361)">
		<g transform="translate(31.512 2.054)">
			<path class="st5" d="M0.6,0h38.1c0.3,0,0.6,0.3,0.6,0.6V3c0,0.3-0.3,0.6-0.6,0.6H0.6C0.3,3.7,0,3.4,0,3V0.6C0,0.3,0.3,0,0.6,0z"
				/>
			<path class="st5" d="M0.6,7.3h135.7c0.3,0,0.6,0.3,0.6,0.6v0.6c0,0.3-0.3,0.6-0.6,0.6H0.6C0.3,9.1,0,8.8,0,8.5V7.9
				C0,7.6,0.3,7.3,0.6,7.3z"/>
			<path class="st5" d="M0.6,11H125c0.3,0,0.6,0.3,0.6,0.6v0.6c0,0.3-0.3,0.6-0.6,0.6H0.6c-0.3,0-0.6-0.3-0.6-0.6v-0.6
				C0,11.2,0.3,11,0.6,11z"/>
			<path class="st5" d="M0.6,14.6h112.9c0.3,0,0.6,0.3,0.6,0.6v0.6c0,0.3-0.3,0.6-0.6,0.6H0.6c-0.3,0-0.6-0.3-0.6-0.6v-0.6
				C0,14.9,0.3,14.6,0.6,14.6z"/>
		</g>
		
			<linearGradient id="SVGID_7_" gradientUnits="userSpaceOnUse" x1="-458.5932" y1="293.7263" x2="-458.5932" y2="292.7263" gradientTransform="matrix(20.552 0 0 -20.542 9435.2842 6033.7266)">
			<stop  offset="0" style="stop-color:#00C7FA"/>
			<stop  offset="1" style="stop-color:#007DFA"/>
		</linearGradient>
		<ellipse class="st16" cx="10.3" cy="10.3" rx="10.3" ry="10.3"/>
	</g>
	<g transform="translate(505.709 286.367)">
		<g transform="translate(31.512 2.054)">
			<path class="st5" d="M0.6,0h38.1c0.3,0,0.6,0.3,0.6,0.6V3c0,0.3-0.3,0.6-0.6,0.6H0.6C0.3,3.7,0,3.4,0,3V0.6C0,0.3,0.3,0,0.6,0z"
				/>
			<path class="st5" d="M0.6,7.3h135.7c0.3,0,0.6,0.3,0.6,0.6v0.6c0,0.3-0.3,0.6-0.6,0.6H0.6C0.3,9.1,0,8.8,0,8.5V7.9
				C0,7.6,0.3,7.3,0.6,7.3z"/>
			<path class="st5" d="M0.6,11H125c0.3,0,0.6,0.3,0.6,0.6v0.6c0,0.3-0.3,0.6-0.6,0.6H0.6c-0.3,0-0.6-0.3-0.6-0.6v-0.6
				C0,11.2,0.3,11,0.6,11z"/>
			<path class="st5" d="M0.6,14.6h112.9c0.3,0,0.6,0.3,0.6,0.6v0.6c0,0.3-0.3,0.6-0.6,0.6H0.6c-0.3,0-0.6-0.3-0.6-0.6v-0.6
				C0,14.9,0.3,14.6,0.6,14.6z"/>
		</g>
		
			<linearGradient id="SVGID_8_" gradientUnits="userSpaceOnUse" x1="-458.8533" y1="356.6929" x2="-458.241" y2="355.5805" gradientTransform="matrix(20.552 0 0 -20.542 9435.2842 7327.749)">
			<stop  offset="0" style="stop-color:#FF52C1"/>
			<stop  offset="1" style="stop-color:#9952FF"/>
		</linearGradient>
		<ellipse class="st17" cx="10.3" cy="10.3" rx="10.3" ry="10.3"/>
	</g>
	<g transform="translate(505.709 380.858)">
		<g transform="translate(31.512 2.054)">
			<path class="st5" d="M0.6,0h38.1c0.3,0,0.6,0.3,0.6,0.6V3c0,0.3-0.3,0.6-0.6,0.6H0.6C0.3,3.7,0,3.4,0,3V0.6C0,0.3,0.3,0,0.6,0z"
				/>
			<path class="st5" d="M0.6,7.3h135.7c0.3,0,0.6,0.3,0.6,0.6v0.6c0,0.3-0.3,0.6-0.6,0.6H0.6C0.3,9.1,0,8.8,0,8.5V7.9
				C0,7.6,0.3,7.3,0.6,7.3z"/>
			<path class="st5" d="M0.6,11H125c0.3,0,0.6,0.3,0.6,0.6v0.6c0,0.3-0.3,0.6-0.6,0.6H0.6c-0.3,0-0.6-0.3-0.6-0.6v-0.6
				C0,11.2,0.3,11,0.6,11z"/>
			<path class="st5" d="M0.6,14.6h112.9c0.3,0,0.6,0.3,0.6,0.6v0.6c0,0.3-0.3,0.6-0.6,0.6H0.6c-0.3,0-0.6-0.3-0.6-0.6v-0.6
				C0,14.9,0.3,14.6,0.6,14.6z"/>
		</g>
		
			<linearGradient id="SVGID_9_" gradientUnits="userSpaceOnUse" x1="-458.8533" y1="262.2019" x2="-458.241" y2="261.0895" gradientTransform="matrix(20.552 0 0 -20.542 9435.2842 5386.7148)">
			<stop  offset="0" style="stop-color:#FF52C1"/>
			<stop  offset="1" style="stop-color:#9952FF"/>
		</linearGradient>
		<ellipse class="st18" cx="10.3" cy="10.3" rx="10.3" ry="10.3"/>
	</g>
	<g transform="translate(505.709 412.356)">
		
			<linearGradient id="SVGID_10_" gradientUnits="userSpaceOnUse" x1="-458.9117" y1="230.9694" x2="-458.2999" y2="229.5517" gradientTransform="matrix(20.552 0 0 -20.542 9435.2842 4739.6831)">
			<stop  offset="0" style="stop-color:#FAD961"/>
			<stop  offset="1" style="stop-color:#FF52C1"/>
		</linearGradient>
		<ellipse class="st19" cx="10.3" cy="10.3" rx="10.3" ry="10.3"/>
		<g transform="translate(31.512 2.054)">
			<path class="st5" d="M0.6,0h38.1c0.3,0,0.6,0.3,0.6,0.6V3c0,0.3-0.3,0.6-0.6,0.6H0.6C0.3,3.7,0,3.4,0,3V0.6C0,0.3,0.3,0,0.6,0z"
				/>
			<path class="st5" d="M0.6,7.3h135.7c0.3,0,0.6,0.3,0.6,0.6v0.6c0,0.3-0.3,0.6-0.6,0.6H0.6C0.3,9.1,0,8.8,0,8.5V7.9
				C0,7.6,0.3,7.3,0.6,7.3z"/>
			<path class="st5" d="M0.6,11H125c0.3,0,0.6,0.3,0.6,0.6v0.6c0,0.3-0.3,0.6-0.6,0.6H0.6c-0.3,0-0.6-0.3-0.6-0.6v-0.6
				C0,11.2,0.3,11,0.6,11z"/>
			<path class="st5" d="M0.6,14.6h112.9c0.3,0,0.6,0.3,0.6,0.6v0.6c0,0.3-0.3,0.6-0.6,0.6H0.6c-0.3,0-0.6-0.3-0.6-0.6v-0.6
				C0,14.9,0.3,14.6,0.6,14.6z"/>
		</g>
	</g>
	<g transform="translate(505.709 443.853)">
		<g transform="translate(31.512 2.054)">
			<path class="st5" d="M0.6,0h38.1c0.3,0,0.6,0.3,0.6,0.6V3c0,0.3-0.3,0.6-0.6,0.6H0.6C0.3,3.7,0,3.4,0,3V0.6C0,0.3,0.3,0,0.6,0z"
				/>
			<path class="st5" d="M0.6,7.3h135.7c0.3,0,0.6,0.3,0.6,0.6v0.6c0,0.3-0.3,0.6-0.6,0.6H0.6C0.3,9.1,0,8.8,0,8.5V7.9
				C0,7.6,0.3,7.3,0.6,7.3z"/>
			<path class="st5" d="M0.6,11H125c0.3,0,0.6,0.3,0.6,0.6v0.6c0,0.3-0.3,0.6-0.6,0.6H0.6c-0.3,0-0.6-0.3-0.6-0.6v-0.6
				C0,11.2,0.3,11,0.6,11z"/>
			<path class="st5" d="M0.6,14.6h112.9c0.3,0,0.6,0.3,0.6,0.6v0.6c0,0.3-0.3,0.6-0.6,0.6H0.6c-0.3,0-0.6-0.3-0.6-0.6v-0.6
				C0,14.9,0.3,14.6,0.6,14.6z"/>
		</g>
		
			<linearGradient id="SVGID_11_" gradientUnits="userSpaceOnUse" x1="-458.5932" y1="199.2343" x2="-458.5932" y2="198.2343" gradientTransform="matrix(20.552 0 0 -20.542 9435.2842 4092.6716)">
			<stop  offset="0" style="stop-color:#00C7FA"/>
			<stop  offset="1" style="stop-color:#007DFA"/>
		</linearGradient>
		<ellipse class="st20" cx="10.3" cy="10.3" rx="10.3" ry="10.3"/>
	</g>
</g>
</svg>
